<?xml version="1.0" encoding="UTF-8"?><svg id="Lag_1" xmlns="http://www.w3.org/2000/svg" viewBox="0 0 410.85513 465.11927"><defs><style>.cls-1{fill:#282828;}</style></defs><path class="cls-1" d="M0,228.68405c0-28.42443,5.05582-56.09093,15.17943-83.01147,10.11464-26.90858,24.97415-51.35652,44.57556-73.3199,19.59244-21.96487,43.38261-39.50628,71.38248-52.64962C159.12836,6.57167,190.78182,0,226.09784,0c42.20162,0,78.70161,9.26702,109.49699,27.77862,30.7864,18.52207,53.50621,42.63515,68.15345,72.35119l-67.83055,47.15878c-7.75266-17.22-17.87627-30.7864-30.36185-40.69773-12.49455-9.90236-25.94884-17.00921-40.37483-21.31907-14.43197-4.29939-28.32277-6.45955-41.66644-6.45955-22.39691,0-41.88769,4.52214-58.46337,13.56641-16.58166,9.04427-30.36185,20.89302-41.34354,35.52979-10.98169,14.64574-19.2785,31.00765-24.86951,49.0962-5.60296,18.08705-8.39847,36.39684-8.39847,54.90845,0,19.81518,3.22903,39.08322,9.69008,57.81757,6.46105,18.73435,15.60399,35.31751,27.45572,49.742,11.83977,14.43346,26.05049,25.83971,42.63515,34.23818,16.57269,8.39697,34.77186,12.5962,54.58555,12.5962,13.77719,0,27.9909-2.36198,42.63515-7.10536,14.63827-4.73441,28.20318-12.2748,40.70072-22.61068,12.48558-10.33588,22.60919-23.90229,30.36185-40.69773l72.35119,42.63664c-9.4778,22.83193-24.44794,42.21059-44.89846,58.13897-20.45949,15.93735-43.28095,27.99987-68.47635,36.17559-25.19241,8.18619-50.28615,12.2748-75.25731,12.2748-32.73279,0-62.55946-6.78395-89.47102-20.34887-26.92054-13.56641-50.28615-31.65495-70.09087-54.26414-19.81368-22.61068-35.20539-48.01537-46.18708-76.22752C5.49234,286.07706,0,257.54201,0,228.68405Z"/></svg>